<svg width="112" height="31" viewBox="0 0 112 31" fill="none" xmlns="http://www.w3.org/2000/svg">
<path d="M16.2947 14.7049H26.1233V26.4733C24.9162 27.7378 23.3859 28.8083 21.5323 29.6848C19.6787 30.5613 17.5879 30.9996 15.2601 30.9996C13.191 30.9996 11.2368 30.6332 9.39748 29.9003C7.55823 29.1675 5.93449 28.1329 4.52632 26.7966C3.11813 25.4602 2.0117 23.8725 1.20703 22.0332C0.402359 20.1939 0 18.1535 0 15.9119C0 13.6703 0.402359 11.6299 1.20703 9.79061C2.0117 7.95135 3.11813 6.36355 4.52632 5.02721C5.93449 3.69087 7.55823 2.6563 9.39748 1.92347C11.2368 1.19064 13.191 0.824219 15.2601 0.824219C17.0707 0.824219 18.6369 1.07568 19.9589 1.57861C21.2808 2.08152 22.4304 2.76407 23.4075 3.62622V9.66129C22.7178 9.144 21.9993 8.64108 21.2521 8.15252C20.5049 7.66397 19.6643 7.26163 18.7303 6.94551C17.7963 6.62938 16.6971 6.47133 15.4326 6.47133C13.7083 6.47133 12.142 6.88803 10.7338 7.72145C9.32564 8.55486 8.20483 9.67566 7.37141 11.0838C6.53801 12.492 6.12131 14.1014 6.12131 15.9119C6.12131 17.6937 6.53801 19.2959 7.37141 20.7184C8.20483 22.141 9.32564 23.2617 10.7338 24.0808C12.142 24.8999 13.7083 25.3094 15.4326 25.3094C16.7545 25.3094 17.8178 25.1513 18.6225 24.8352C19.4272 24.5191 20.0594 24.1742 20.5193 23.8006L20.5624 19.0156H16.2947V14.7049ZM40.2996 8.0232C42.4262 8.0232 44.366 8.5333 46.1191 9.55351C47.8721 10.5737 49.2875 11.9532 50.3652 13.6919C51.4429 15.4305 51.9817 17.3776 51.9817 19.5329C51.9817 21.6883 51.4429 23.6282 50.3652 25.3525C49.2875 27.0768 47.8721 28.449 46.1191 29.4693C44.366 30.4895 42.4262 30.9996 40.2996 30.9996C38.2016 30.9996 36.269 30.4895 34.5016 29.4693C32.7342 28.449 31.3188 27.0768 30.2555 25.3525C29.1922 23.6282 28.6605 21.6883 28.6605 19.5329C28.6605 17.3776 29.1922 15.4305 30.2555 13.6919C31.3188 11.9532 32.7342 10.5737 34.5016 9.55351C36.269 8.5333 38.2016 8.0232 40.2996 8.0232ZM40.2996 13.3254C39.265 13.3254 38.3022 13.5697 37.4113 14.0583C36.5205 14.5468 35.8092 15.2509 35.2775 16.1705C34.7458 17.0902 34.48 18.211 34.48 19.5329C34.48 20.8549 34.7458 21.9757 35.2775 22.8953C35.8092 23.815 36.5205 24.5119 37.4113 24.9861C38.3022 25.4602 39.265 25.6973 40.2996 25.6973C41.3342 25.6973 42.2969 25.4602 43.1878 24.9861C44.0787 24.5119 44.7971 23.815 45.3432 22.8953C45.8892 21.9757 46.1622 20.8549 46.1622 19.5329C46.1622 18.211 45.8892 17.0902 45.3432 16.1705C44.7971 15.2509 44.0787 14.5468 43.1878 14.0583C42.2969 13.5697 41.3342 13.3254 40.2996 13.3254ZM59.3855 8.0232C61.5121 8.0232 63.452 8.5333 65.205 9.55351C66.9581 10.5737 68.3734 11.9532 69.4511 13.6919C70.5288 15.4305 71.0677 17.3776 71.0677 19.5329C71.0677 21.6883 70.5288 23.6282 69.4511 25.3525C68.3734 27.0768 66.9581 28.449 65.205 29.4693C63.452 30.4895 61.5121 30.9996 59.3855 30.9996C57.2876 30.9996 55.3549 30.4895 53.5875 29.4693C51.8201 28.449 50.4047 27.0768 49.3414 25.3525C48.2781 23.6282 47.7464 21.6883 47.7464 19.5329C47.7464 17.3776 48.2781 15.4305 49.3414 13.6919C50.4047 11.9532 51.8201 10.5737 53.5875 9.55351C55.3549 8.5333 57.2876 8.0232 59.3855 8.0232ZM59.3855 13.3254C58.3509 13.3254 57.3882 13.5697 56.4973 14.0583C55.6064 14.5468 54.8951 15.2509 54.3634 16.1705C53.8318 17.0902 53.5659 18.211 53.5659 19.5329C53.5659 20.8549 53.8318 21.9757 54.3634 22.8953C54.8951 23.815 55.6064 24.5119 56.4973 24.9861C57.3882 25.4602 58.3509 25.6973 59.3855 25.6973C60.4201 25.6973 61.3828 25.4602 62.2737 24.9861C63.1646 24.5119 63.883 23.815 64.4291 22.8953C64.9751 21.9757 65.2481 20.8549 65.2481 19.5329C65.2481 18.211 64.9751 17.0902 64.4291 16.1705C63.883 15.2509 63.1646 14.5468 62.2737 14.0583C61.3828 13.5697 60.4201 13.3254 59.3855 13.3254ZM78.5039 8.5836V11.6873C79.1649 10.7965 80.063 9.96304 81.1981 9.1871C82.3333 8.41117 83.6337 8.0232 85.0994 8.0232C87.3122 8.0232 89.1659 8.77039 90.6603 10.2648C92.1547 11.7592 92.9019 14.0008 92.9019 16.9896V30.353H87.4272L87.3841 17.7224C87.3841 16.2568 87.032 15.1647 86.3279 14.4462C85.6239 13.7278 84.6539 13.3686 83.4182 13.3686C82.4411 13.3686 81.5286 13.6847 80.6808 14.3169C79.8331 14.9492 79.1074 15.6964 78.5039 16.5585V30.353H73.0292V8.5836H78.5039ZM103.838 8.0232C105.189 8.0232 106.439 8.22437 107.589 8.6267C108.738 9.02905 109.629 9.48885 110.261 10.0061V14.8342C109.572 14.3744 108.731 13.929 107.74 13.4979C106.748 13.0668 105.721 12.8513 104.658 12.8513C103.623 12.8513 102.804 13.0812 102.2 13.541C101.597 14.0008 101.295 14.5468 101.295 15.1791C101.295 15.6389 101.468 16.0628 101.812 16.4507C102.157 16.8387 102.818 17.1764 103.795 17.4638L106.252 18.2828C109.557 19.2599 111.21 21.171 111.21 24.0161C111.21 25.3668 110.829 26.5667 110.068 27.6156C109.306 28.6646 108.286 29.4908 107.007 30.0943C105.728 30.6978 104.313 30.9996 102.761 30.9996C101.295 30.9996 99.8726 30.7697 98.4931 30.3099C97.1137 29.85 96.0647 29.3471 95.3463 28.8011V24.0161C95.8923 24.3897 96.5533 24.749 97.3292 25.0938C98.1051 25.4387 98.9098 25.7189 99.7432 25.9344C100.577 26.15 101.338 26.2577 102.028 26.2577C103.12 26.2577 103.961 26.0638 104.55 25.6758C105.139 25.2878 105.433 24.7346 105.433 24.0161C105.433 23.4701 105.189 23.039 104.701 22.7229C104.212 22.4068 103.494 22.0907 102.545 21.7745L99.8726 20.8262C98.2057 20.2801 97.0562 19.5042 96.4239 18.4984C95.7917 17.4925 95.4756 16.2999 95.4756 14.9204C95.4756 13.541 95.8276 12.3411 96.5317 11.3209C97.2358 10.3007 98.2201 9.49605 99.4846 8.9069C100.749 8.31776 102.2 8.0232 103.838 8.0232Z" fill="#4F4C74"/>
</svg>
